<?xml version="1.0" standalone="no"?>
<!DOCTYPE svg PUBLIC "-//W3C//DTD SVG 20010904//EN"
 "http://www.w3.org/TR/2001/REC-SVG-20010904/DTD/svg10.dtd">
<svg version="1.0" xmlns="http://www.w3.org/2000/svg"
 width="1024.000000pt" height="1024.000000pt" viewBox="0 0 1024.000000 1024.000000"
 preserveAspectRatio="xMidYMid meet">

<g transform="translate(0.000000,1024.000000) scale(0.100000,-0.100000)"
fill="#FFFFFF" stroke="none">
<path d="M5032 8995 c-26 -33 -26 -31 -57 -190 -14 -71 -42 -197 -61 -280 -40
-168 -334 -1359 -364 -1475 -19 -69 -85 -370 -126 -570 -10 -47 -18 -86 -19
-87 -1 -1 -86 -20 -191 -42 -527 -111 -1070 -242 -1604 -388 -510 -139 -684
-184 -839 -215 -172 -36 -214 -56 -219 -104 -4 -39 34 -81 79 -88 19 -3 106
-17 194 -31 88 -14 211 -32 273 -41 140 -19 462 -87 777 -164 292 -71 398 -94
765 -170 650 -134 735 -152 742 -159 9 -8 26 -94 68 -341 77 -453 197 -1019
344 -1627 105 -433 111 -460 162 -711 48 -236 56 -263 88 -299 34 -40 81 -22
114 42 10 21 54 231 72 350 12 80 55 266 146 640 101 414 111 462 184 815 37
184 80 385 94 445 14 61 34 169 46 240 12 72 36 204 54 295 l33 165 114 12
c170 19 362 58 1024 209 83 19 276 63 430 98 154 35 330 74 390 86 61 11 166
34 235 50 69 16 163 34 210 40 274 35 375 54 398 77 23 23 29 71 12 102 -14
27 -71 47 -236 80 -178 36 -526 124 -754 191 -91 26 -250 69 -355 94 -104 26
-269 66 -365 90 -317 80 -726 172 -940 212 -195 36 -190 34 -190 88 0 44 -57
335 -85 432 -8 29 -33 125 -54 215 -79 331 -212 869 -257 1039 -46 178 -97
396 -160 685 -19 88 -43 171 -53 185 -27 38 -91 40 -119 5z m75 -777 c12 -61
51 -218 169 -678 204 -795 302 -1250 268 -1250 -3 0 -20 11 -37 24 -45 35
-150 82 -227 103 -103 28 -262 24 -380 -9 -117 -32 -193 -65 -244 -107 -22
-17 -40 -30 -42 -28 -2 1 1 20 6 42 5 22 14 78 20 125 12 94 83 430 105 500 8
25 28 106 45 180 63 280 101 439 134 560 19 69 41 152 49 185 76 307 104 405
116 405 4 0 12 -24 18 -52z m144 -2024 c90 -27 151 -64 220 -133 104 -105 149
-216 149 -372 0 -280 -157 -481 -414 -530 -113 -21 -259 1 -376 58 -196 95
-305 341 -260 584 24 131 136 287 247 346 56 30 137 57 198 67 51 7 179 -3
236 -20z m-801 -61 c-4 -27 -18 -70 -32 -98 -81 -158 -108 -366 -69 -528 23
-97 66 -191 113 -250 16 -21 28 -40 26 -42 -7 -8 -401 63 -524 94 -66 16 -153
35 -194 41 -84 13 -360 73 -580 125 -80 19 -174 38 -210 44 -106 16 -620 145
-617 155 2 5 97 33 213 62 115 29 250 64 299 78 396 107 1477 359 1571 365 7
1 8 -15 4 -46z m1405 17 c72 -16 216 -48 320 -70 105 -23 305 -70 445 -106
310 -78 280 -70 585 -143 138 -33 270 -67 295 -76 25 -9 101 -27 168 -40 68
-14 131 -29 140 -34 21 -12 18 -13 -83 -35 -38 -9 -110 -27 -160 -40 -49 -14
-173 -43 -275 -65 -102 -22 -279 -61 -395 -86 -115 -25 -241 -54 -280 -65 -38
-10 -137 -32 -220 -49 -82 -17 -206 -42 -275 -56 -105 -22 -374 -65 -404 -65
-5 0 -1 10 10 23 31 35 92 166 111 237 24 87 23 271 0 359 -20 75 -98 239
-134 282 -27 31 -25 59 4 59 10 0 77 -13 148 -30z m-1140 -1127 c57 -30 177
-68 270 -88 140 -29 325 -2 461 69 38 20 77 42 86 48 24 17 29 8 18 -33 -5
-19 -21 -106 -35 -194 -38 -239 -69 -404 -125 -670 -28 -132 -66 -314 -85
-405 -43 -210 -116 -532 -155 -680 -17 -63 -37 -150 -45 -193 -8 -44 -18 -84
-22 -90 -25 -41 -383 1616 -438 2033 -14 102 -28 205 -32 230 l-6 45 34 -26
c19 -14 52 -35 74 -46z"/>
<path d="M4984 5911 c-85 -39 -155 -164 -139 -249 10 -54 42 -123 73 -156 57
-60 170 -84 245 -52 86 37 167 147 167 228 0 91 -70 198 -152 233 -51 21 -143
19 -194 -4z m131 -221 c0 -21 -5 -26 -33 -28 -22 -2 -34 2 -38 12 -12 30 4 47
38 44 28 -2 33 -7 33 -28z"/>
<path d="M4380 8569 c-519 -122 -1036 -413 -1425 -803 -136 -137 -199 -212
-337 -406 -220 -311 -360 -596 -470 -955 -50 -161 -58 -246 -29 -292 27 -43
58 -50 114 -25 60 26 74 51 109 185 43 166 63 225 144 410 165 382 436 765
717 1016 224 200 413 329 642 441 254 125 525 215 728 244 76 10 83 14 104 45
34 50 30 96 -11 137 -32 32 -38 34 -97 33 -35 0 -120 -14 -189 -30z"/>
<path d="M5535 8582 c-95 -58 -56 -191 61 -207 133 -18 233 -41 379 -89 189
-62 264 -96 445 -201 258 -148 438 -284 629 -476 271 -272 486 -590 636 -939
44 -104 143 -403 156 -474 13 -69 38 -99 98 -117 55 -16 88 -4 113 41 23 43
20 74 -27 245 -138 504 -447 1032 -816 1396 -267 264 -500 431 -816 585 -222
108 -396 171 -607 220 -171 39 -209 41 -251 16z"/>
<path d="M5777 7516 c-43 -40 -47 -98 -11 -154 8 -12 58 -44 112 -71 135 -68
348 -223 467 -340 119 -118 257 -299 340 -447 64 -113 87 -136 155 -148 25 -4
44 0 68 14 49 30 45 77 -18 198 -77 151 -160 272 -292 426 -167 195 -276 288
-508 431 -191 117 -262 138 -313 91z"/>
<path d="M4215 7510 c-77 -30 -225 -118 -336 -200 -140 -104 -375 -347 -465
-480 -112 -165 -204 -342 -204 -389 0 -10 13 -33 29 -50 34 -36 66 -39 127
-12 36 16 48 31 94 117 77 145 188 292 335 443 154 158 294 266 456 350 65 34
126 72 134 84 8 12 15 43 15 68 0 43 -3 49 -34 68 -41 26 -86 26 -151 1z"/>
<path d="M6735 7501 c-16 -10 -63 -52 -102 -94 -81 -83 -88 -107 -53 -164 23
-38 67 -63 110 -63 46 0 184 136 200 199 27 102 -67 177 -155 122z"/>
<path d="M3303 7495 c-30 -21 -40 -78 -20 -120 22 -46 121 -150 162 -170 47
-22 98 -6 126 39 34 57 26 91 -37 152 -110 105 -179 135 -231 99z"/>
<path d="M3899 6936 c-34 -17 -71 -75 -63 -100 7 -23 16 -35 119 -156 121
-143 117 -139 161 -146 38 -6 46 -3 79 28 31 28 37 40 37 73 0 37 -7 46 -133
170 -74 73 -144 134 -156 137 -12 3 -32 1 -44 -6z"/>
<path d="M6202 6935 c-19 -8 -90 -70 -158 -138 -113 -112 -124 -126 -124 -159
0 -47 39 -94 91 -110 l40 -12 137 143 c75 79 141 152 146 162 15 30 -3 68 -46
99 -47 34 -43 34 -86 15z"/>
<path d="M2142 5214 c-27 -19 -52 -65 -52 -96 0 -53 91 -384 144 -523 214
-558 609 -1086 1077 -1438 193 -145 494 -310 740 -405 184 -72 437 -144 507
-146 61 -1 65 0 98 36 39 43 42 69 14 116 -29 48 -71 68 -200 98 -314 73 -604
202 -900 399 -195 129 -318 232 -464 388 -153 163 -232 258 -330 402 -233 339
-379 669 -446 1009 -19 94 -23 104 -60 139 -44 41 -89 49 -128 21z"/>
<path d="M7881 5199 c-17 -17 -31 -34 -31 -37 -1 -27 -65 -277 -94 -369 -41
-124 -119 -320 -167 -416 -40 -79 -158 -271 -223 -362 -151 -211 -385 -463
-551 -595 -321 -254 -738 -462 -1105 -552 -174 -42 -220 -74 -220 -150 0 -49
53 -108 97 -108 44 0 292 63 413 105 117 41 371 153 498 220 117 62 361 227
467 315 459 382 821 896 990 1402 57 173 115 400 118 461 2 44 -1 51 -35 83
-31 28 -45 34 -82 34 -36 0 -50 -6 -75 -31z"/>
<path d="M3243 4965 c-41 -41 -41 -42 28 -173 65 -123 188 -304 287 -423 85
-102 330 -325 436 -396 103 -70 252 -143 291 -143 43 0 93 42 101 85 4 23 -2
42 -25 77 -25 40 -43 53 -123 91 -152 74 -377 252 -516 409 -81 93 -132 164
-217 308 -78 132 -107 167 -152 186 -50 21 -72 17 -110 -21z"/>
<path d="M6782 4980 c-18 -11 -50 -48 -70 -81 -20 -33 -85 -133 -143 -222 -89
-136 -123 -179 -215 -267 -126 -122 -298 -248 -436 -321 -80 -42 -103 -60
-128 -97 -34 -51 -34 -51 -19 -89 18 -47 49 -73 87 -73 41 0 180 72 322 167
129 86 362 284 431 365 124 148 327 478 336 546 5 34 1 42 -27 65 -39 33 -91
36 -138 7z"/>
<path d="M5954 4836 c-38 -38 -44 -77 -20 -124 21 -40 216 -226 253 -241 29
-12 36 -11 67 9 41 24 76 66 76 88 0 15 -234 255 -279 284 -38 26 -59 22 -97
-16z"/>
<path d="M3962 4732 c-88 -84 -132 -134 -132 -148 0 -30 41 -87 73 -102 50
-24 82 -7 199 106 60 58 121 126 135 150 l26 43 -24 25 c-33 35 -72 54 -111
54 -29 0 -51 -18 -166 -128z"/>
<path d="M3408 4143 c-18 -15 -57 -50 -85 -79 -47 -45 -53 -56 -53 -92 0 -57
39 -102 87 -102 46 0 68 12 136 79 95 91 109 140 58 192 -40 39 -96 40 -143 2z"/>
<path d="M6606 4139 c-55 -65 -44 -97 75 -217 67 -67 107 -83 159 -62 38 16
60 51 60 97 0 34 -7 45 -72 107 -124 117 -173 133 -222 75z"/>
</g>
</svg>
